<mxfile host="app.diagrams.net" modified="2022-11-25T07:02:52.586Z" agent="5.0 (Windows NT 10.0; Win64; x64) AppleWebKit/537.36 (KHTML, like Gecko) Chrome/107.0.0.0 Safari/537.36" version="20.6.0" etag="M9zJlyp3Rwox5s8Y3wXm" type="github">
  <diagram id="8lwFGOKpHd7fMU1kq3Pu" name="第 1 页">
    <mxGraphModel dx="1673" dy="908" grid="1" gridSize="10" guides="1" tooltips="1" connect="1" arrows="1" fold="1" page="1" pageScale="1" pageWidth="827" pageHeight="1169" math="0" shadow="0">
      <root>
        <mxCell id="0" />
        <mxCell id="1" parent="0" />
        <mxCell id="aQcB3SvRFzd90vFGZ_lK-11" value="GroupCategoryRepositoryImpl" style="shape=umlLifeline;perimeter=lifelinePerimeter;whiteSpace=wrap;html=1;container=1;collapsible=0;recursiveResize=0;outlineConnect=0;" vertex="1" parent="1">
          <mxGeometry x="860" y="60" width="240" height="400" as="geometry" />
        </mxCell>
        <mxCell id="aQcB3SvRFzd90vFGZ_lK-12" value="getCategoryIdByGroupIds(&lt;br&gt;saasId,&lt;br&gt;frontCategoryIds,&lt;br&gt;deliverType)" style="rounded=1;whiteSpace=wrap;html=1;" vertex="1" parent="aQcB3SvRFzd90vFGZ_lK-11">
          <mxGeometry x="28.75" y="130" width="182.5" height="70" as="geometry" />
        </mxCell>
        <mxCell id="aQcB3SvRFzd90vFGZ_lK-4" style="edgeStyle=orthogonalEdgeStyle;rounded=0;orthogonalLoop=1;jettySize=auto;html=1;exitX=1;exitY=0.5;exitDx=0;exitDy=0;entryX=0;entryY=0.167;entryDx=0;entryDy=0;entryPerimeter=0;" edge="1" parent="1" source="aQcB3SvRFzd90vFGZ_lK-1" target="aQcB3SvRFzd90vFGZ_lK-3">
          <mxGeometry relative="1" as="geometry" />
        </mxCell>
        <mxCell id="aQcB3SvRFzd90vFGZ_lK-1" value="Client" style="rounded=1;whiteSpace=wrap;html=1;" vertex="1" parent="1">
          <mxGeometry x="210" y="60" width="50" height="180" as="geometry" />
        </mxCell>
        <mxCell id="aQcB3SvRFzd90vFGZ_lK-2" value="SpuSearchController" style="shape=umlLifeline;perimeter=lifelinePerimeter;whiteSpace=wrap;html=1;container=1;collapsible=0;recursiveResize=0;outlineConnect=0;" vertex="1" parent="1">
          <mxGeometry x="360" y="60" width="180" height="400" as="geometry" />
        </mxCell>
        <mxCell id="aQcB3SvRFzd90vFGZ_lK-3" value="searchSpu(request)" style="rounded=1;whiteSpace=wrap;html=1;" vertex="1" parent="aQcB3SvRFzd90vFGZ_lK-2">
          <mxGeometry x="30" y="80" width="120" height="60" as="geometry" />
        </mxCell>
        <mxCell id="aQcB3SvRFzd90vFGZ_lK-5" style="edgeStyle=orthogonalEdgeStyle;rounded=0;orthogonalLoop=1;jettySize=auto;html=1;exitX=0;exitY=0.75;exitDx=0;exitDy=0;entryX=0.994;entryY=0.692;entryDx=0;entryDy=0;entryPerimeter=0;" edge="1" parent="1" source="aQcB3SvRFzd90vFGZ_lK-3" target="aQcB3SvRFzd90vFGZ_lK-1">
          <mxGeometry relative="1" as="geometry" />
        </mxCell>
        <mxCell id="aQcB3SvRFzd90vFGZ_lK-6" value="拼接图片链接后缀" style="edgeLabel;html=1;align=center;verticalAlign=middle;resizable=0;points=[];" vertex="1" connectable="0" parent="aQcB3SvRFzd90vFGZ_lK-5">
          <mxGeometry x="-0.2028" y="2" relative="1" as="geometry">
            <mxPoint x="-7" as="offset" />
          </mxGeometry>
        </mxCell>
        <mxCell id="aQcB3SvRFzd90vFGZ_lK-7" value="SpuSearchServiceImpl" style="shape=umlLifeline;perimeter=lifelinePerimeter;whiteSpace=wrap;html=1;container=1;collapsible=0;recursiveResize=0;outlineConnect=0;" vertex="1" parent="1">
          <mxGeometry x="560" y="60" width="270" height="400" as="geometry" />
        </mxCell>
        <mxCell id="aQcB3SvRFzd90vFGZ_lK-33" style="edgeStyle=orthogonalEdgeStyle;rounded=0;orthogonalLoop=1;jettySize=auto;html=1;exitX=0.25;exitY=1;exitDx=0;exitDy=0;entryX=0.315;entryY=0.017;entryDx=0;entryDy=0;entryPerimeter=0;" edge="1" parent="aQcB3SvRFzd90vFGZ_lK-7" source="aQcB3SvRFzd90vFGZ_lK-8" target="aQcB3SvRFzd90vFGZ_lK-9">
          <mxGeometry relative="1" as="geometry" />
        </mxCell>
        <mxCell id="aQcB3SvRFzd90vFGZ_lK-39" style="edgeStyle=orthogonalEdgeStyle;rounded=0;orthogonalLoop=1;jettySize=auto;html=1;exitX=0;exitY=0.5;exitDx=0;exitDy=0;entryX=0.042;entryY=-0.072;entryDx=0;entryDy=0;entryPerimeter=0;" edge="1" parent="aQcB3SvRFzd90vFGZ_lK-7" source="aQcB3SvRFzd90vFGZ_lK-8" target="aQcB3SvRFzd90vFGZ_lK-10">
          <mxGeometry relative="1" as="geometry">
            <Array as="points">
              <mxPoint x="25" y="110" />
            </Array>
          </mxGeometry>
        </mxCell>
        <mxCell id="aQcB3SvRFzd90vFGZ_lK-8" value="searchSpu(request)" style="rounded=1;whiteSpace=wrap;html=1;" vertex="1" parent="aQcB3SvRFzd90vFGZ_lK-7">
          <mxGeometry x="75" y="80" width="120" height="60" as="geometry" />
        </mxCell>
        <mxCell id="aQcB3SvRFzd90vFGZ_lK-34" style="edgeStyle=orthogonalEdgeStyle;rounded=0;orthogonalLoop=1;jettySize=auto;html=1;exitX=0.75;exitY=0;exitDx=0;exitDy=0;entryX=0.75;entryY=1;entryDx=0;entryDy=0;" edge="1" parent="aQcB3SvRFzd90vFGZ_lK-7" source="aQcB3SvRFzd90vFGZ_lK-9" target="aQcB3SvRFzd90vFGZ_lK-8">
          <mxGeometry relative="1" as="geometry" />
        </mxCell>
        <mxCell id="aQcB3SvRFzd90vFGZ_lK-9" value="doSearchSpu(request)" style="rounded=1;whiteSpace=wrap;html=1;" vertex="1" parent="aQcB3SvRFzd90vFGZ_lK-7">
          <mxGeometry x="60" y="160" width="140" height="70" as="geometry" />
        </mxCell>
        <mxCell id="aQcB3SvRFzd90vFGZ_lK-41" style="edgeStyle=orthogonalEdgeStyle;rounded=0;orthogonalLoop=1;jettySize=auto;html=1;exitX=0.139;exitY=-0.072;exitDx=0;exitDy=0;entryX=0;entryY=0.75;entryDx=0;entryDy=0;exitPerimeter=0;" edge="1" parent="aQcB3SvRFzd90vFGZ_lK-7" source="aQcB3SvRFzd90vFGZ_lK-10" target="aQcB3SvRFzd90vFGZ_lK-8">
          <mxGeometry relative="1" as="geometry">
            <Array as="points">
              <mxPoint x="48" y="215" />
              <mxPoint x="48" y="215" />
              <mxPoint x="48" y="125" />
            </Array>
          </mxGeometry>
        </mxCell>
        <mxCell id="aQcB3SvRFzd90vFGZ_lK-10" value="build(saasId, spuStoreMap, response)" style="rounded=1;whiteSpace=wrap;html=1;" vertex="1" parent="aQcB3SvRFzd90vFGZ_lK-7">
          <mxGeometry x="15" y="290" width="240" height="30" as="geometry" />
        </mxCell>
        <mxCell id="aQcB3SvRFzd90vFGZ_lK-17" style="edgeStyle=orthogonalEdgeStyle;rounded=0;orthogonalLoop=1;jettySize=auto;html=1;exitX=1.004;exitY=0.056;exitDx=0;exitDy=0;entryX=-0.015;entryY=0.478;entryDx=0;entryDy=0;entryPerimeter=0;exitPerimeter=0;" edge="1" parent="1" source="aQcB3SvRFzd90vFGZ_lK-9" target="aQcB3SvRFzd90vFGZ_lK-12">
          <mxGeometry relative="1" as="geometry" />
        </mxCell>
        <mxCell id="aQcB3SvRFzd90vFGZ_lK-19" style="edgeStyle=orthogonalEdgeStyle;rounded=0;orthogonalLoop=1;jettySize=auto;html=1;exitX=0;exitY=0.75;exitDx=0;exitDy=0;entryX=1;entryY=0.321;entryDx=0;entryDy=0;entryPerimeter=0;" edge="1" parent="1" source="aQcB3SvRFzd90vFGZ_lK-12" target="aQcB3SvRFzd90vFGZ_lK-9">
          <mxGeometry relative="1" as="geometry" />
        </mxCell>
        <mxCell id="aQcB3SvRFzd90vFGZ_lK-20" value="OptimizeEsSearchService" style="shape=umlLifeline;perimeter=lifelinePerimeter;whiteSpace=wrap;html=1;container=1;collapsible=0;recursiveResize=0;outlineConnect=0;" vertex="1" parent="1">
          <mxGeometry x="1120" y="60" width="230" height="670" as="geometry" />
        </mxCell>
        <mxCell id="aQcB3SvRFzd90vFGZ_lK-27" style="edgeStyle=orthogonalEdgeStyle;rounded=0;orthogonalLoop=1;jettySize=auto;html=1;exitX=0.25;exitY=1;exitDx=0;exitDy=0;entryX=0.325;entryY=0.012;entryDx=0;entryDy=0;entryPerimeter=0;" edge="1" parent="aQcB3SvRFzd90vFGZ_lK-20" source="aQcB3SvRFzd90vFGZ_lK-21" target="aQcB3SvRFzd90vFGZ_lK-24">
          <mxGeometry relative="1" as="geometry" />
        </mxCell>
        <mxCell id="aQcB3SvRFzd90vFGZ_lK-21" value="search(request, list)" style="rounded=1;whiteSpace=wrap;html=1;" vertex="1" parent="aQcB3SvRFzd90vFGZ_lK-20">
          <mxGeometry x="40" y="200" width="150" height="40" as="geometry" />
        </mxCell>
        <mxCell id="aQcB3SvRFzd90vFGZ_lK-28" style="edgeStyle=orthogonalEdgeStyle;rounded=0;orthogonalLoop=1;jettySize=auto;html=1;exitX=0.75;exitY=0;exitDx=0;exitDy=0;entryX=0.822;entryY=1.05;entryDx=0;entryDy=0;entryPerimeter=0;" edge="1" parent="aQcB3SvRFzd90vFGZ_lK-20" source="aQcB3SvRFzd90vFGZ_lK-24" target="aQcB3SvRFzd90vFGZ_lK-21">
          <mxGeometry relative="1" as="geometry" />
        </mxCell>
        <mxCell id="aQcB3SvRFzd90vFGZ_lK-29" style="edgeStyle=orthogonalEdgeStyle;rounded=0;orthogonalLoop=1;jettySize=auto;html=1;exitX=0.25;exitY=1;exitDx=0;exitDy=0;entryX=0.197;entryY=0.004;entryDx=0;entryDy=0;entryPerimeter=0;" edge="1" parent="aQcB3SvRFzd90vFGZ_lK-20" source="aQcB3SvRFzd90vFGZ_lK-24" target="aQcB3SvRFzd90vFGZ_lK-25">
          <mxGeometry relative="1" as="geometry" />
        </mxCell>
        <mxCell id="aQcB3SvRFzd90vFGZ_lK-24" value="doSearch(saasId,&lt;br&gt;mainStore,storeInfos,&lt;br&gt;field,order,page,&lt;br&gt;size,fetchSize,&lt;br&gt;isReversOrder,&lt;br&gt;onlyIncludeSoldOut)" style="rounded=1;whiteSpace=wrap;html=1;" vertex="1" parent="aQcB3SvRFzd90vFGZ_lK-20">
          <mxGeometry x="15" y="270" width="200" height="100" as="geometry" />
        </mxCell>
        <mxCell id="aQcB3SvRFzd90vFGZ_lK-30" style="edgeStyle=orthogonalEdgeStyle;rounded=0;orthogonalLoop=1;jettySize=auto;html=1;exitX=0.75;exitY=0;exitDx=0;exitDy=0;entryX=0.717;entryY=1.028;entryDx=0;entryDy=0;entryPerimeter=0;" edge="1" parent="aQcB3SvRFzd90vFGZ_lK-20" source="aQcB3SvRFzd90vFGZ_lK-25" target="aQcB3SvRFzd90vFGZ_lK-24">
          <mxGeometry relative="1" as="geometry" />
        </mxCell>
        <mxCell id="aQcB3SvRFzd90vFGZ_lK-31" style="edgeStyle=orthogonalEdgeStyle;rounded=0;orthogonalLoop=1;jettySize=auto;html=1;exitX=0.25;exitY=1;exitDx=0;exitDy=0;entryX=0.25;entryY=0;entryDx=0;entryDy=0;" edge="1" parent="aQcB3SvRFzd90vFGZ_lK-20" source="aQcB3SvRFzd90vFGZ_lK-25" target="aQcB3SvRFzd90vFGZ_lK-26">
          <mxGeometry relative="1" as="geometry" />
        </mxCell>
        <mxCell id="aQcB3SvRFzd90vFGZ_lK-25" value="doSearch(searchRequests, page, size, isReversOrder,&lt;br&gt;onlyIncludeSoldOut)" style="rounded=1;whiteSpace=wrap;html=1;" vertex="1" parent="aQcB3SvRFzd90vFGZ_lK-20">
          <mxGeometry x="32.5" y="410" width="165" height="90" as="geometry" />
        </mxCell>
        <mxCell id="aQcB3SvRFzd90vFGZ_lK-32" style="edgeStyle=orthogonalEdgeStyle;rounded=0;orthogonalLoop=1;jettySize=auto;html=1;exitX=0.75;exitY=0;exitDx=0;exitDy=0;entryX=0.75;entryY=1;entryDx=0;entryDy=0;" edge="1" parent="aQcB3SvRFzd90vFGZ_lK-20" source="aQcB3SvRFzd90vFGZ_lK-26" target="aQcB3SvRFzd90vFGZ_lK-25">
          <mxGeometry relative="1" as="geometry" />
        </mxCell>
        <mxCell id="aQcB3SvRFzd90vFGZ_lK-26" value="doPage(hits, page, size, isReversOrder, onlyIncludeSoldOut)" style="rounded=1;whiteSpace=wrap;html=1;" vertex="1" parent="aQcB3SvRFzd90vFGZ_lK-20">
          <mxGeometry x="25" y="530" width="175" height="70" as="geometry" />
        </mxCell>
        <mxCell id="aQcB3SvRFzd90vFGZ_lK-22" style="edgeStyle=orthogonalEdgeStyle;rounded=0;orthogonalLoop=1;jettySize=auto;html=1;exitX=1.007;exitY=0.711;exitDx=0;exitDy=0;entryX=0;entryY=0.25;entryDx=0;entryDy=0;exitPerimeter=0;" edge="1" parent="1" source="aQcB3SvRFzd90vFGZ_lK-9" target="aQcB3SvRFzd90vFGZ_lK-21">
          <mxGeometry relative="1" as="geometry" />
        </mxCell>
        <mxCell id="aQcB3SvRFzd90vFGZ_lK-23" style="edgeStyle=orthogonalEdgeStyle;rounded=0;orthogonalLoop=1;jettySize=auto;html=1;exitX=0;exitY=0.605;exitDx=0;exitDy=0;entryX=1.004;entryY=0.917;entryDx=0;entryDy=0;entryPerimeter=0;exitPerimeter=0;" edge="1" parent="1" source="aQcB3SvRFzd90vFGZ_lK-21" target="aQcB3SvRFzd90vFGZ_lK-9">
          <mxGeometry relative="1" as="geometry" />
        </mxCell>
        <mxCell id="aQcB3SvRFzd90vFGZ_lK-37" style="edgeStyle=orthogonalEdgeStyle;rounded=0;orthogonalLoop=1;jettySize=auto;html=1;exitX=1;exitY=0.25;exitDx=0;exitDy=0;entryX=0;entryY=0.25;entryDx=0;entryDy=0;" edge="1" parent="1" source="aQcB3SvRFzd90vFGZ_lK-3" target="aQcB3SvRFzd90vFGZ_lK-8">
          <mxGeometry relative="1" as="geometry" />
        </mxCell>
        <mxCell id="aQcB3SvRFzd90vFGZ_lK-42" style="edgeStyle=orthogonalEdgeStyle;rounded=0;orthogonalLoop=1;jettySize=auto;html=1;exitX=1;exitY=1;exitDx=0;exitDy=0;entryX=0.75;entryY=0;entryDx=0;entryDy=0;" edge="1" parent="1" source="aQcB3SvRFzd90vFGZ_lK-8" target="aQcB3SvRFzd90vFGZ_lK-3">
          <mxGeometry relative="1" as="geometry">
            <Array as="points">
              <mxPoint x="800" y="200" />
              <mxPoint x="800" y="120" />
              <mxPoint x="480" y="120" />
            </Array>
          </mxGeometry>
        </mxCell>
      </root>
    </mxGraphModel>
  </diagram>
</mxfile>
